<svg width="48" height="41" fill="none" xmlns="http://www.w3.org/2000/svg"><path d="M42.247 8.45h-5.07V3.38A3.38 3.38 0 0033.797 0H13.52a3.38 3.38 0 00-3.38 3.38v5.07H5.07A5.07 5.07 0 000 13.518v23.658a3.38 3.38 0 003.38 3.38h40.557a3.38 3.38 0 003.38-3.38V13.52a5.07 5.07 0 00-5.07-5.07zM13.519 3.38h20.279v5.07h-20.28V3.38zm30.418 33.797H3.38V21.968h13.519v8.45h13.519v-8.45h13.519v15.21zM20.279 21.968h6.759v5.07h-6.76v-5.07zm-16.9-3.38V13.52a1.69 1.69 0 011.69-1.69h37.178a1.69 1.69 0 011.69 1.69v5.07H3.38z" fill="#fff"/></svg>